<svg xmlns="http://www.w3.org/2000/svg" viewBox="0 0 14 14" width="14" height="14">
  <circle cx="7" cy="7" r="7" fill="#E8447F"/>
  <g fill="#ffffff">
    <rect x="6.6" y="7.3" width="0.8" height="3.1" rx="0.4"/>
    <path d="M6.85 9.1 C5.65 8.8 4.85 9.3 4.35 10.2 C5.55 10.45 6.45 10.0 6.85 9.1 Z"/>
    <path d="M7.15 9.5 C8.35 9.25 9.15 9.75 9.55 10.6 C8.4 10.85 7.55 10.4 7.15 9.5 Z"/>
    <path d="M4.3 4.2 C4.6 6, 5.5 7.2, 7 7.75 C8.5 7.2, 9.4 6, 9.7 4.2 C9.2 5, 8.7 5.2, 8.4 5.1 C8 5, 7.4 4.6, 7 4.0 C6.6 4.6, 6 5, 5.6 5.1 C5.3 5.2, 4.8 5, 4.3 4.2 Z"/>
  </g>
</svg>
